<?xml version="1.0" encoding="UTF-8"?>
<svg xmlns="http://www.w3.org/2000/svg" viewBox="0 0 862.14 883.68">
  <defs>
    <style>
      .cls-1 {
        fill: #9f8993;
      }

      .cls-2 {
        fill: #190e18;
      }

      .cls-3 {
        fill: #d2d1cb;
      }

      .cls-4 {
        fill: #5c2c4e;
      }
    </style>
  </defs>
  <g id="Calque_1" data-name="Calque 1">
    <g>
      <path class="cls-1" d="M427.5,872.07c-56.97,0-112.24-11.16-164.26-33.16-50.25-21.25-95.38-51.68-134.14-90.44-38.76-38.76-69.19-83.89-90.44-134.14-22-52.02-33.16-107.29-33.16-164.26s11.16-112.24,33.16-164.26c21.25-50.25,51.68-95.38,90.44-134.14s83.89-69.19,134.14-90.44c52.02-22,107.29-33.16,164.26-33.16s112.24,11.16,164.26,33.16c50.25,21.25,95.38,51.68,134.14,90.44,38.76,38.76,69.19,83.89,90.44,134.14,22,52.02,33.16,107.29,33.16,164.26s-11.16,112.24-33.16,164.26c-21.25,50.25-51.68,95.38-90.44,134.14-38.76,38.76-83.89,69.19-134.14,90.44-52.02,22-107.29,33.16-164.26,33.16Z"/>
      <path d="M427.5,33.57c56.23,0,110.78,11.01,162.12,32.73,49.6,20.98,94.14,51.01,132.39,89.26,38.25,38.25,68.29,82.8,89.26,132.39,21.72,51.34,32.73,105.89,32.73,162.12s-11.01,110.78-32.73,162.12c-20.98,49.6-51.01,94.14-89.26,132.39-38.25,38.25-82.8,68.29-132.39,89.26-51.34,21.72-105.89,32.73-162.12,32.73s-110.78-11.01-162.12-32.73c-49.6-20.98-94.14-51.01-132.39-89.26-38.25-38.25-68.29-82.8-89.26-132.39-21.72-51.34-32.73-105.89-32.73-162.12s11.01-110.78,32.73-162.12c20.98-49.6,51.01-94.14,89.26-132.39,38.25-38.25,82.8-68.29,132.39-89.26,51.34-21.72,105.89-32.73,162.12-32.73m0-11C191.4,22.57,0,213.97,0,450.07s191.4,427.5,427.5,427.5,427.5-191.4,427.5-427.5S663.6,22.57,427.5,22.57h0Z"/>
    </g>
    <circle class="cls-2" cx="427" cy="446.57" r="341"/>
  </g>
  <g id="Maison">
    <path class="cls-3" d="M708.67,296.57c-1.33-3.56-10.47-22.88-12.67-66l-3.78-90.44s-10.16,123.6-13.78,138.49c-3.33,13.73,3.56,21.07-32.89,26.85,31.56,4,32.44,7.56,32.44,7.56,0,0,6.22,36.44-22.67,60.89-28.89,24.44-47.11,24-67.56,24s-41.78-.89-41.78-.89l-.89-85.78s24.02-11.46,37.93-7.04c-12.67-5.27-35.75-7.97-36.15-7.19-.44,.89-4.89-115.56-18.67-162.67,0,0,4.44,98.67-14.67,105.78-11.11-15.56-62.72-126.89-83.11-175.11-20.39,48.22-72,159.56-83.11,175.11-19.11-7.11-14.67-105.78-14.67-105.78-13.78,47.11-18.22,163.56-18.67,162.67-.39-.79-23.48,1.92-36.15,7.19,13.91-4.43,37.93,7.04,37.93,7.04l-.89,85.78s-21.33,.89-41.78,.89-38.67,.44-67.56-24c-28.89-24.44-22.67-60.89-22.67-60.89,0,0,.89-3.56,32.44-7.56-36.44-5.78-29.56-13.11-32.89-26.85-3.61-14.89-13.78-138.49-13.78-138.49l-3.78,90.44c-2.2,43.12-11.33,62.44-12.67,66s-30.22,8.89-30.22,8.89l24.89-1.33s3.11,2.22,11.11,9.78c6.67,41.33,12,46.22,36.89,75.11,24.89,28.89,69.33,28.08,69.33,28.08h72.44v-97.86l28-43.56,29.33,47.11v94.31h72.89v-94.31l29.33-47.11,28,43.56v97.86h72.44s44.44,.8,69.33-28.08c24.89-28.89,30.22-33.78,36.89-75.11,8-7.56,11.11-9.78,11.11-9.78l24.89,1.33s-28.89-5.33-30.22-8.89Zm-238.09-53.28l-37.32,1.04s-1.27-33.66,17.61-38.17c13.42-3.21,19.71,37.13,19.71,37.13Zm-41.33-109.72l19.73,42.41s-13.41,20.3-20.64,22.59c-7.17-2.5-20-23.17-20-23.17l20.92-41.83Zm-22.58,72.17c19,3.99,18.67,37.67,18.67,37.67h-37.33s5.17-40.5,18.67-37.67Zm0,91.69c-17-1.19-18.67-39.02-18.67-39.02h37.33s-5.11,39.97-18.67,39.02Zm38,89.31h-31.5v-44.5l15.75-23,15.75,22.67v44.83Zm8.76-88.92c-13.53,1.32-19.75-38.48-19.75-38.48l37.32-1.04s-.61,37.87-17.57,39.53Z"/>
    <path class="cls-4" d="M252.67,315.23c21.14-19.15,41.06-39.21,59.06-60.36,2.24-2.64,4.82-4.93,7.34-7.28,17.81-17.79,34.34-38.06,45.19-60.65,.37-.81,1.15-2.4,1.5-3.18,0,0,.45-1.24,.45-1.24l3.59-9.96c18.12-50.38,44.02-122.02,62.21-172.55,1.79,8.13,7.6,37.26,9.59,44.56,16.82,64.24,44.08,126.46,83.42,180.13,4.78,6.5,10.92,14.36,16.19,20.48,3.32,4.03,7.16,7.58,10.41,11.66,6.05,8.08,13.17,16.92,19.97,24.39,1.71,1.9,5.25,5.95,7.15,7.81,3.99,4.18,10.81,11.07,15.15,14.95,0,0,3.89,3.7,3.89,3.7,1.31,1.21,2.7,2.33,4.05,3.51,2.73,2.31,5.45,4.66,8.18,7.05-4.89-2.29-9.83-4.6-14.68-7.03-20.98-11.11-40.7-24.84-58.44-40.73-39.68-42.98-69.07-94.52-90.85-148.56-10.13-25.33-18.76-51.29-25.15-77.83-.42-1.82-.82-3.55-1.24-5.54l19.21,1.41c-14.94,41.87-39.33,108.76-54.07,149.96-12.28,29.32-33.44,53.27-55.06,75.84-6.58,6.23-14.21,11.31-21.47,16.64-17.67,12.32-36.18,23.6-55.58,32.85h0Z"/>
    <g>
      <path class="cls-3" d="M202.78,506.45c-.17,1.54-1.54,2.57-3.76,2.39l-26.51-1.54c-2.56,0-4.79,1.03-6.5,2.91-1.71,2.05-2.56,4.45-2.56,7.35,0,4.28,1.37,7.35,4.27,9.06l22.06,10.77c.85,.34,1.03,.68,2.05,.68,.68,0,1.37-.34,1.71-.68l4.45-3.42c.51-.51,1.2-.86,2.05-.86,1.54,0,2.91,1.37,2.91,2.91,0,.86-.51,1.71-1.2,2.22l-13.51,9.58c-.51,.34-1.2,.68-1.88,.68-.85,0-1.2-.17-1.88-.68l-23.43-15.9c-4.1-2.91-8.21,0-8.21,4.1s2.91,6.33,2.91,10.6c0,4.62-4.28,8.38-8.38,8.38s-8.38-4.62-8.38-7.52c0-3.25,.34-6.5,5.47-14.71l35.74-57.12c1.03-1.71,1.54-4.62,1.54-5.64,0-2.57-2.05-5.3-5.47-5.3-2.22,0-5.81,.34-10.94,5.47-.85,.85-1.88,1.2-2.74,1.2s-4.28,0-4.28-4.27c0-2.91,8.89-11.29,25.99-11.29,14.54,0,17.78,5.47,17.78,9.58,0,4.79-22.23,25.14-22.23,29.07,0,.51,.34,1.2,2.74,1.2l18.13,.51c2.57,0,2.57,3.42,2.57,3.93l-.51,6.33Zm46.68,32.15c-1.37,.85-20.69,13-24.11,13-8.55,0-12.48-7.35-13.34-21.89v-63.44c0-11.46-7.52-22.74-26.68-22.74-3.42,0-13.51,.51-23.94,4.45-1.37,.51-3.08-1.03-3.08-1.54,0-2.05,12.83-11.12,30.44-11.12,22.91,0,31.81,8.89,36.94,8.89,4.28,0,10.43-9.41,13.85-9.41,.51,0,2.05,.34,2.22,2.91,.17,5.13-9.06,3.42-9.06,17.96v74.9c0,5.47,1.71,7.69,3.76,7.69,4.45,0,13.34-8.89,14.71-8.89,4.27,0,4.62,3.08,4.45,4.1-.17,1.88-2.39,2.74-6.16,5.13Z"/>
      <path class="cls-3" d="M320.09,535.01c-.17,.68-1.54,1.37-4.1,2.22-3.42,1.2-10.43,5.3-16.07,10.94-2.22,2.22-3.93,3.42-4.96,3.42-.51,0-1.88-.68-4.45-1.88-1.88-.86-7.18-5.13-27.87-5.13-1.37,0-2.05-.17-2.05-.68-.17-2.05,5.3-14.19,19.49-14.19,2.22,0,5.47-1.2,17.1,4.62,.34,.17,.85,.34,1.2,.34,1.2,0,2.22-1.03,2.22-2.22v-9.92c0-.17,.34-2.74-1.54-3.93l-7.01-4.45c-1.2-.68-1.37-1.71-2.91-1.71-1.88,0-2.74,1.2-4.1,2.74l-2.22,2.56c-.68,.86-1.88,1.54-2.74,1.54-.68,0-1.88-.17-3.08-.85l-13.85-7.87c-.85-.51-3.08-.86-3.08-5.64v-16.59c0-1.71,.17-2.91,.34-3.59,.17-.51,1.54-1.37,4.1-2.22,4.62-1.54,11.12-5.99,16.07-10.94,2.22-2.22,3.93-3.42,4.96-3.42,1.54,0,11.12,6.84,24.45,6.84h8.04c5.3,0-5.98,15.73-17.44,15.73-3.08,0-5.98,1.2-17.27-4.45-.34-.17-.85-.34-1.2-.34-1.2,0-2.22,1.03-2.22,2.22v9.92c0,.17-.34,2.91,1.54,3.93l6.5,3.76c2.05,1.2,4.79-.51,5.99-2.57l1.71-2.91c.68-1.2,2.56-1.88,3.42-1.88,.51,0,2.91,2.22,4.45,3.08l13.68,7.87c.85,.51,3.25,1.37,3.25,5.64v16.59c0,1.71-.17,2.91-.34,3.42Z"/>
      <path class="cls-3" d="M372.07,474.64c-1.54,0-3.08,.34-4.27,1.2-1.37,.85-2.57,1.71-3.42,2.22-1.03,.68-1.54,1.37-2.05,2.22-.51,.86-1.54,2.39-2.05,4.62l-8.55,41.55c-.51,2.22-.85,3.93,.51,4.62l5.81,3.08c.85,.51,1.54,.68,2.05,.68,.34,0,.85-.17,1.54-.68l3.76-2.91c1.03-.68,2.39-2.05,3.42-.86l1.37,1.71c.68,.85,0,1.71-1.03,2.56l-18.3,15.73c-.51,.34-1.2,.68-1.88,.68-.86,0-1.2-.34-1.88-.68l-12.83-6.16c-.85-.34-1.37-1.2-1.37-2.22,0-.86,.34-1.54,1.03-2.05l1.54-1.03c1.2-.68,3.93-2.39,3.93-7.7v-52.33c0-1.03-.68-1.71-1.71-1.71h-5.3c-1.03,0-1.71-.68-1.71-1.71,0-.51,.17-.85,.51-1.2l19.67-26.33c.34-.51,1.03-.85,1.71-.85,1.2,0,2.22,1.03,2.22,2.22v12.48c0,4.79,3.76,8.55,8.38,8.55h8.72c2.74,0,3.42-.17,3.42,.85,0,2.22-1.03,3.42-3.25,3.42Z"/>
      <path class="cls-3" d="M450.05,542.7l-14.88,7.52c-1.2,.51-2.22,1.03-2.91,1.03s-1.2-.34-1.88-1.03l-10.09-13.34-18.98,14.54c-.51,.34-1.2,.68-1.88,.68-.86,0-1.37-.17-1.88-.68l-13.17-10.26c-3.42-2.74-4.79-3.25-4.79-4.1s.17-1.54,.68-2.05l1.71-1.03c1.2-.68,2.22-1.88,2.91-3.42,.51-1.54,.85-2.91,.85-4.28v-10.94c0-5.47-1.37-6.16-1.37-8.55,0-1.37,.51-2.91,1.88-3.25l20.01-5.99c1.37-.34,3.59,.68,3.59,2.57,0,1.37-.34,1.88-1.03,2.57-4.28,3.93-4.62,4.45-4.62,9.58v18.64c0,1.71,0,2.74,.85,3.93l2.39,2.22c.51,.51,1.37,.17,1.71,0l5.47-3.08c2.05-1.2,2.05-2.91,2.05-4.96v-40.7c0-1.88-1.54-3.42-3.42-3.42l-23.6-10.09c-.85-.34-1.37-1.2-1.37-2.22,0-1.37,1.03-2.39,2.39-2.39,.68,0,4.28,.68,5.3,.85l17.96,2.74c2.57,.34,6.33,.34,9.58,.34,2.05,0,6.67-.68,12.31-2.74,1.71-.68,2.91-1.2,4.45-1.2,1.03,0,1.71,1.54,1.71,2.39s-.17,2.05-1.71,3.08c-3.25,2.22-3.59,4.79-3.59,11.29v47.54c0,2.74,2.22,4.96,4.96,4.96,4.45,0,4.1-3.08,7.18-3.08,1.71,0,3.25,1.54,3.25,3.25,0,1.2-.68,2.39-2.05,3.08Z"/>
      <path class="cls-3" d="M509.89,488.49l-6.84,10.6c-.51,.86-1.54,1.37-2.57,1.37-1.2,0-2.05-.68-2.74-1.54l-7.01-9.92c-.51-.68-1.37-1.2-2.22-1.2-1.54,0-2.74,1.2-2.74,2.74v39.84c0,3.25,1.71,7.18,5.3,7.18,.17,0,1.03-.17,1.88-.68l4.1-2.22c.68-.34,1.2-.68,1.71-.68,.86,0,1.88,1.37,1.88,2.05,0,.51,.17,1.03-1.2,1.88l-18.47,12.14c-1.03,.68-1.54,1.37-2.91,1.37-1.54,0-4.28-2.22-8.21-4.28-3.76-2.05-7.87-4.1-9.06-4.45-.86-.34-1.71-1.2-1.71-2.05,0-3.25,7.01,.51,7.01-8.55v-36.94c0-.68-1.2-6.16-3.25-7.35-.85-.51-2.22-.85-3.76-.85h-1.71c-1.37,0-2.05-.34-2.57-1.54l14.19-14.71c.68-.86,2.05-.51,2.91-.51s1.71,.51,2.91,1.71l7.35,7.7c1.2,1.37,2.39,1.88,3.25,1.88,1.2,0,2.22-.68,3.08-1.88l4.45-6.33c1.71-2.39,2.22-3.59,4.28-3.59,1.37,0,2.05,.68,2.74,1.54l9.92,12.66c.68,.85,1.2,1.37,1.2,2.22,0,.68-.51,1.37-1.2,2.39Z"/>
      <path class="cls-3" d="M571.11,537.23c-7.01,3.93-9.58,5.47-18.3,13.68-.51,.51-1.2,.68-1.71,.68-.86,0-2.05-.86-3.76-2.57-1.71-1.71-4.45-3.76-8.21-5.98-3.76-2.22-7.87-4.45-15.39-4.45h-2.74c-.86,0-1.71-.17-2.57-.34-.86-.17-1.37-1.03-1.37-2.22,0-.86,.34-1.2,1.03-1.2,.85,0,1.88-.68,3.08-2.05,1.2-1.37,1.71-4.1,1.71-8.38l-.51-36.94c0-2.05,.17-7.35,4.79-7.87l14.71-7.35c2.05-1.03,2.57-1.88,3.42-1.88,.68,0,1.37,.17,1.88,.51,2.74,1.54,12.14,7.7,26.16,9.92,1.71,.34,3.25,1.88,3.25,4.79v46.68c0,1.37-1.88,2.91-5.47,4.96Zm-18.13-52.5l-5.3-3.25c-.68-.34-1.37-.51-2.22-.51-2.39,0-4.28,1.88-4.28,4.28l-.68,44.97c0,1.54,.86,2.91,2.05,3.59l5.3,3.25c.68,.34,1.37,.51,2.22,.51,2.39,0,4.28-1.88,4.28-4.28l.68-44.97c0-1.54-.85-2.91-2.05-3.59Z"/>
      <path class="cls-3" d="M632.33,474.64c-1.54,0-3.08,.34-4.28,1.2-1.37,.85-2.57,1.71-3.42,2.22-1.03,.68-1.54,1.37-2.05,2.22-.51,.86-1.54,2.39-2.05,4.62l-8.55,41.55c-.51,2.22-.86,3.93,.51,4.62l5.81,3.08c.85,.51,1.54,.68,2.05,.68,.34,0,.85-.17,1.54-.68l3.76-2.91c1.03-.68,2.39-2.05,3.42-.86l1.37,1.71c.68,.85,0,1.71-1.03,2.56l-18.3,15.73c-.51,.34-1.2,.68-1.88,.68-.86,0-1.2-.34-1.88-.68l-12.83-6.16c-.85-.34-1.37-1.2-1.37-2.22,0-.86,.34-1.54,1.03-2.05l1.54-1.03c1.2-.68,3.93-2.39,3.93-7.7v-52.33c0-1.03-.68-1.71-1.71-1.71h-5.3c-1.03,0-1.71-.68-1.71-1.71,0-.51,.17-.85,.51-1.2l19.67-26.33c.34-.51,1.03-.85,1.71-.85,1.2,0,2.22,1.03,2.22,2.22v12.48c0,4.79,3.76,8.55,8.38,8.55h8.72c2.74,0,3.42-.17,3.42,.85,0,2.22-1.03,3.42-3.25,3.42Z"/>
      <path class="cls-3" d="M664.64,571.26c-2.39,0-3.59-.51-3.59-1.37,0-.68,1.2-1.71,3.42-2.74,20.18-9.23,21.03-19.15,21.03-28.39v-52.84c0-2.05-1.03-5.3-3.76-5.3-.68,0-1.37,.34-2.22,1.03l-8.21,4.45c-1.2,1.2-1.88,2.74-1.88,4.79v41.04c0,.86-.17,5.13,1.88,7.7l.68,.86c.68,.85,.68,1.54,.68,2.22,0,1.03-.34,1.54-1.2,2.05l-9.23,5.98c-.86,.51-1.71,.68-2.57,.68s-1.71-.17-2.57-.68l-11.97-5.81c-1.03-.51-1.54-1.37-1.54-2.22s.34-1.54,1.03-2.05l1.54-1.03c1.54-1.03,3.42-3.59,3.42-7.7v-70.8c0-9.75-6.84-13.34-9.41-15.9-.68-.68-1.2-1.37-1.2-2.22,0-1.54,1.37-2.91,2.91-2.91,.34,0,1.03,.17,1.71,.34l11.8,2.74,14.19-5.81c.34-.17,.86-.34,1.2-.34,1.54,0,2.91,1.37,2.91,2.91,0,.85-.51,1.71-1.03,2.22-2.22,1.88-3.25,3.08-3.25,7.01v31.81l15.56-9.06c2.39-1.37,4.62-1.88,6.16-1.88,4.28,0,13.68,4.45,13.68,21.72v40.7c0,31.29-29.41,38.82-40.19,38.82Z"/>
      <path class="cls-3" d="M345.5,656.49c-14.04,0-29.07-9.63-29.07-30.24,0-17.01,12.06-30.78,15.21-30.78,.27,0,.9,.72,.99,1.26l-.45,.72c-5.94,6.48-8.64,14.76-8.64,22.68,0,14.13,9.54,27.18,26.1,27.18,4.68,0,11.79,.27,20.97-6.93,.81-.63,1.71-.99,2.7-.99,.54,0,.81,.9,.81,1.62,0,2.97-9.63,15.48-28.62,15.48Zm24.39-44.28c-1.71,1.89-2.88,5.4-3.69,6.21-.45,.45-1.35,1.8-3.87,1.8h-13.05c-1.08,0-2.97,.45-2.97-2.43,0-1.98,3.51-7.74,8.1-12.96,.54-.54,.63-1.08,.63-1.35,0-.45-.63-.9-1.53-1.44-2.88-1.8-5.4-2.79-6.39-2.79-.45,0-1.26,.99-1.89,3.42l-6.57,25.29c-.45,1.8-1.17,3.06-2.52,3.06-1.53,0-1.62-1.44-1.62-2.16l-.09-17.91c0-2.34,.18-4.23,2.88-7.2,1.8-1.98,6.39-5.58,9.99-8.64,1.26-1.08,1.98-1.98,2.43-1.98s.99,.45,1.71,.9c.81,.45,4.23,2.7,10.08,2.7,4.41,0,6.12-2.97,7.02-3.15,.99,.09,1.53,.81,1.53,1.26,0,2.52-11.88,11.7-11.88,14.04,0,1.35,1.98,1.44,5.22,1.44,4.41,0,5.4-.45,6.03-1.26,.63-.81,1.26-1.17,1.89-1.17,.72,0,1.08,.27,1.08,.9,0,.45-.81,1.53-2.52,3.42Z"/>
      <path class="cls-3" d="M410.21,646.68c-.09,.36-.81,.72-2.16,1.17-1.8,.63-5.49,2.79-8.46,5.76-1.17,1.17-2.07,1.8-2.61,1.8-.27,0-.99-.36-2.34-.99-.99-.45-3.78-2.7-14.67-2.7-.72,0-1.08-.09-1.08-.36-.09-1.08,2.79-7.47,10.26-7.47,1.17,0,2.88-.63,9,2.43,.18,.09,.45,.18,.63,.18,.63,0,1.17-.54,1.17-1.17v-5.22c0-.09,.18-1.44-.81-2.07l-3.69-2.34c-.63-.36-.72-.9-1.53-.9-.99,0-1.44,.63-2.16,1.44l-1.17,1.35c-.36,.45-.99,.81-1.44,.81-.36,0-.99-.09-1.62-.45l-7.29-4.14c-.45-.27-1.62-.45-1.62-2.97v-8.73c0-.9,.09-1.53,.18-1.89,.09-.27,.81-.72,2.16-1.17,2.43-.81,5.85-3.15,8.46-5.76,1.17-1.17,2.07-1.8,2.61-1.8,.81,0,5.85,3.6,12.87,3.6h4.23c2.79,0-3.15,8.28-9.18,8.28-1.62,0-3.15,.63-9.09-2.34-.18-.09-.45-.18-.63-.18-.63,0-1.17,.54-1.17,1.17v5.22c0,.09-.18,1.53,.81,2.07l3.42,1.98c1.08,.63,2.52-.27,3.15-1.35l.9-1.53c.36-.63,1.35-.99,1.8-.99,.27,0,1.53,1.17,2.34,1.62l7.2,4.14c.45,.27,1.71,.72,1.71,2.97v8.73c0,.9-.09,1.53-.18,1.8Z"/>
      <path class="cls-3" d="M437.57,614.91c-.81,0-1.62,.18-2.25,.63-.72,.45-1.35,.9-1.8,1.17-.54,.36-.81,.72-1.08,1.17-.27,.45-.81,1.26-1.08,2.43l-4.5,21.87c-.27,1.17-.45,2.07,.27,2.43l3.06,1.62c.45,.27,.81,.36,1.08,.36,.18,0,.45-.09,.81-.36l1.98-1.53c.54-.36,1.26-1.08,1.8-.45l.72,.9c.36,.45,0,.9-.54,1.35l-9.63,8.28c-.27,.18-.63,.36-.99,.36-.45,0-.63-.18-.99-.36l-6.75-3.24c-.45-.18-.72-.63-.72-1.17,0-.45,.18-.81,.54-1.08l.81-.54c.63-.36,2.07-1.26,2.07-4.05v-27.54c0-.54-.36-.9-.9-.9h-2.79c-.54,0-.9-.36-.9-.9,0-.27,.09-.45,.27-.63l10.35-13.86c.18-.27,.54-.45,.9-.45,.63,0,1.17,.54,1.17,1.17v6.57c0,2.52,1.98,4.5,4.41,4.5h4.59c1.44,0,1.8-.09,1.8,.45,0,1.17-.54,1.8-1.71,1.8Z"/>
      <path class="cls-3" d="M478.61,650.73l-7.83,3.96c-.63,.27-1.17,.54-1.53,.54s-.63-.18-.99-.54l-5.31-7.02-9.99,7.65c-.27,.18-.63,.36-.99,.36-.45,0-.72-.09-.99-.36l-6.93-5.4c-1.8-1.44-2.52-1.71-2.52-2.16s.09-.81,.36-1.08l.9-.54c.63-.36,1.17-.99,1.53-1.8,.27-.81,.45-1.53,.45-2.25v-5.76c0-2.88-.72-3.24-.72-4.5,0-.72,.27-1.53,.99-1.71l10.53-3.15c.72-.18,1.89,.36,1.89,1.35,0,.72-.18,.99-.54,1.35-2.25,2.07-2.43,2.34-2.43,5.04v9.81c0,.9,0,1.44,.45,2.07l1.26,1.17c.27,.27,.72,.09,.9,0l2.88-1.62c1.08-.63,1.08-1.53,1.08-2.61v-21.42c0-.99-.81-1.8-1.8-1.8l-12.42-5.31c-.45-.18-.72-.63-.72-1.17,0-.72,.54-1.26,1.26-1.26,.36,0,2.25,.36,2.79,.45l9.45,1.44c1.35,.18,3.33,.18,5.04,.18,1.08,0,3.51-.36,6.48-1.44,.9-.36,1.53-.63,2.34-.63,.54,0,.9,.81,.9,1.26s-.09,1.08-.9,1.62c-1.71,1.17-1.89,2.52-1.89,5.94v25.02c0,1.44,1.17,2.61,2.61,2.61,2.34,0,2.16-1.62,3.78-1.62,.9,0,1.71,.81,1.71,1.71,0,.63-.36,1.26-1.08,1.62Z"/>
      <path class="cls-3" d="M503.81,614.91c-.81,0-1.62,.18-2.25,.63-.72,.45-1.35,.9-1.8,1.17-.54,.36-.81,.72-1.08,1.17-.27,.45-.81,1.26-1.08,2.43l-4.5,21.87c-.27,1.17-.45,2.07,.27,2.43l3.06,1.62c.45,.27,.81,.36,1.08,.36,.18,0,.45-.09,.81-.36l1.98-1.53c.54-.36,1.26-1.08,1.8-.45l.72,.9c.36,.45,0,.9-.54,1.35l-9.63,8.28c-.27,.18-.63,.36-.99,.36-.45,0-.63-.18-.99-.36l-6.75-3.24c-.45-.18-.72-.63-.72-1.17,0-.45,.18-.81,.54-1.08l.81-.54c.63-.36,2.07-1.26,2.07-4.05v-27.54c0-.54-.36-.9-.9-.9h-2.79c-.54,0-.9-.36-.9-.9,0-.27,.09-.45,.27-.63l10.35-13.86c.18-.27,.54-.45,.9-.45,.63,0,1.17,.54,1.17,1.17v6.57c0,2.52,1.98,4.5,4.41,4.5h4.59c1.44,0,1.8-.09,1.8,.45,0,1.17-.54,1.8-1.71,1.8Z"/>
      <path class="cls-3" d="M533.87,627.15l-6.57,9.27c-.63,.81-1.08,1.17-1.53,1.35-.18,.09-.36,.18-.45,.18s-.72-.45-.72-1.08c0-.18,.09-.36,.18-.45,.36-.36,.18-.81,.45-1.08l1.62-1.98c.45-.54,1.08-1.62,1.08-2.79,0-.9-.81-1.8-1.08-2.07l-4.05-4.05c-.36-.36-.63-.54-.81-.54-.36,0-1.17,.18-1.17,3.51v16.92c0,2.52,1.44,2.97,3.69,4.14,.99,.54,2.07,.81,2.79,.81,.63,0,.9-.18,1.26-.36l3.6-2.43c.63-.45,.99-.54,1.26-.54,.18,0,.9,.54,.9,1.17,0,.27-.18,.45-.63,.72l-8.82,6.03c-1.35,.9-2.16,1.26-2.43,1.26-.45,0-.99-.18-1.53-.45-3.33-1.89-7.38-3.51-9.9-3.87-.72-.09-2.43-.45-2.43-.72,0-.81,1.8-2.52,2.34-4.59,.36-1.26,.45-2.34,.45-3.33l.72-23.85c0-.54,.18-.81,.63-1.08l7.65-4.14c.54-.27,1.53-1.08,2.52-1.08,.36,0,.72,.36,1.17,.72l8.91,8.46c.63,.72,2.07,1.98,2.07,3.24,0,.99-.54,1.89-1.17,2.7Z"/>
    </g>
  </g>
</svg>